# xmcd
#
# Track frame offsets:
#	150
#	18792
#	35961
#	57709
#	76708
#	96461
#	123038
#	141752
#	162683
#	185191
#
# Disc length: 2794 seconds
#
# Revision: 1
# Processed by: cddbd v1.5.2PL0 Copyright (c) Steve Scherf et al.
# Submitted via: audiograbber 1.83.01
#
DISCID=8d0ae80a
DTITLE=East Hundred - Passenger
DYEAR=2008
DGENRE=Alternative Rock
TTITLE0=Slow Burning Crimes
TTITLE1=Plus Minus
TTITLE2=Deadpan
TTITLE3=Autopilot
TTITLE4=Pony
TTITLE5=Along the Way
TTITLE6=Hammerhead
TTITLE7=Dear Blue
TTITLE8=Sigh and Wave
TTITLE9=Afterlove
EXTD=
EXTT0=
EXTT1=
EXTT2=
EXTT3=
EXTT4=
EXTT5=
EXTT6=
EXTT7=
EXTT8=
EXTT9=
PLAYORDER=
